<svg width="30" height="30" viewBox="0 0 30 30" fill="none" xmlns="http://www.w3.org/2000/svg">
<g id="arrow-left">
<path id="Vector" d="M17.2447 26.2585L15.7583 27.5803C15.1289 28.1399 14.1111 28.1399 13.4885 27.5803L0.472046 16.0121C-0.157349 15.4525 -0.157349 14.5475 0.472046 13.9938L13.4885 2.41974C14.1178 1.86009 15.1356 1.86009 15.7583 2.41974L17.2447 3.74147C17.8808 4.30708 17.8674 5.22991 17.2179 5.7836L9.14965 12.6185H28.393C29.2836 12.6185 30 13.2556 30 14.0474V15.9526C30 16.7444 29.2836 17.3815 28.393 17.3815H9.14965L17.2179 24.2164C17.8741 24.7701 17.8875 25.6929 17.2447 26.2585Z" fill="#5D3587"/>
</g>
</svg>
