<svg width="27" height="25" viewBox="0 0 27 25" fill="none" xmlns="http://www.w3.org/2000/svg">
<path id="Vector" d="M18.2103 4.82337C15.4449 4.82337 13.161 3.12498 9.68419 3.12498C8.39637 3.12498 7.24277 3.33905 6.17268 3.71156C6.32098 3.34509 6.3841 2.95269 6.35773 2.56107C6.26629 1.17259 5.06331 0.0588696 3.59419 0.00232655C1.94317 -0.0612477 0.583618 1.18631 0.583618 2.73436C0.583618 3.66336 1.07372 4.48363 1.82216 4.97777V23.8281C1.82216 24.4753 2.37666 25 3.06069 25H3.88639C4.57042 25 5.12493 24.4753 5.12493 23.8281V19.2187C6.58594 18.6297 8.40612 18.1386 11.0304 18.1386C13.7959 18.1386 16.0797 19.837 19.5566 19.837C22.0424 19.837 24.0291 19.0414 25.8785 17.8419C26.3266 17.5514 26.5929 17.0689 26.5929 16.5549V4.6848C26.5929 3.54256 25.3405 2.78685 24.2456 3.268C22.4736 4.04671 20.3002 4.82337 18.2103 4.82337Z" fill="#A367B1"/>
</svg>
