<svg width="22" height="25" viewBox="0 0 22 25" fill="none" xmlns="http://www.w3.org/2000/svg">
<path id="Vector" d="M0.578949 22.6562C0.578949 23.9502 1.58929 25 2.83459 25H19.3759C20.6212 25 21.6316 23.9502 21.6316 22.6562V9.375H0.578949V22.6562ZM15.6165 13.0859C15.6165 12.7637 15.8703 12.5 16.1805 12.5H18.0602C18.3703 12.5 18.6241 12.7637 18.6241 13.0859V15.0391C18.6241 15.3613 18.3703 15.625 18.0602 15.625H16.1805C15.8703 15.625 15.6165 15.3613 15.6165 15.0391V13.0859ZM15.6165 19.3359C15.6165 19.0137 15.8703 18.75 16.1805 18.75H18.0602C18.3703 18.75 18.6241 19.0137 18.6241 19.3359V21.2891C18.6241 21.6113 18.3703 21.875 18.0602 21.875H16.1805C15.8703 21.875 15.6165 21.6113 15.6165 21.2891V19.3359ZM9.60151 13.0859C9.60151 12.7637 9.85526 12.5 10.1654 12.5H12.0451C12.3553 12.5 12.609 12.7637 12.609 13.0859V15.0391C12.609 15.3613 12.3553 15.625 12.0451 15.625H10.1654C9.85526 15.625 9.60151 15.3613 9.60151 15.0391V13.0859ZM9.60151 19.3359C9.60151 19.0137 9.85526 18.75 10.1654 18.75H12.0451C12.3553 18.75 12.609 19.0137 12.609 19.3359V21.2891C12.609 21.6113 12.3553 21.875 12.0451 21.875H10.1654C9.85526 21.875 9.60151 21.6113 9.60151 21.2891V19.3359ZM3.58647 13.0859C3.58647 12.7637 3.84023 12.5 4.15038 12.5H6.03008C6.34023 12.5 6.59399 12.7637 6.59399 13.0859V15.0391C6.59399 15.3613 6.34023 15.625 6.03008 15.625H4.15038C3.84023 15.625 3.58647 15.3613 3.58647 15.0391V13.0859ZM3.58647 19.3359C3.58647 19.0137 3.84023 18.75 4.15038 18.75H6.03008C6.34023 18.75 6.59399 19.0137 6.59399 19.3359V21.2891C6.59399 21.6113 6.34023 21.875 6.03008 21.875H4.15038C3.84023 21.875 3.58647 21.6113 3.58647 21.2891V19.3359ZM19.3759 3.125H17.1203V0.78125C17.1203 0.351562 16.782 0 16.3684 0H14.8647C14.4511 0 14.1128 0.351562 14.1128 0.78125V3.125H8.09775V0.78125C8.09775 0.351562 7.7594 0 7.34587 0H5.84211C5.42857 0 5.09023 0.351562 5.09023 0.78125V3.125H2.83459C1.58929 3.125 0.578949 4.1748 0.578949 5.46875V7.8125H21.6316V5.46875C21.6316 4.1748 20.6212 3.125 19.3759 3.125Z" fill="#A367B1"/>
</svg>
