<svg width="28" height="18" viewBox="0 0 28 18" fill="none" xmlns="http://www.w3.org/2000/svg">
<path id="Vector" d="M4.55814 7.5C6.07173 7.5 7.30233 6.37891 7.30233 5C7.30233 3.62109 6.07173 2.5 4.55814 2.5C3.04455 2.5 1.81395 3.62109 1.81395 5C1.81395 6.37891 3.04455 7.5 4.55814 7.5ZM23.7674 7.5C25.281 7.5 26.5116 6.37891 26.5116 5C26.5116 3.62109 25.281 2.5 23.7674 2.5C22.2539 2.5 21.0233 3.62109 21.0233 5C21.0233 6.37891 22.2539 7.5 23.7674 7.5ZM25.1395 8.75H22.3953C21.6407 8.75 20.9589 9.02734 20.4616 9.47656C22.1895 10.3398 23.4158 11.8984 23.6817 13.75H26.5116C27.2706 13.75 27.8837 13.1914 27.8837 12.5V11.25C27.8837 9.87109 26.6531 8.75 25.1395 8.75ZM14.1628 8.75C16.8169 8.75 18.9651 6.79297 18.9651 4.375C18.9651 1.95703 16.8169 0 14.1628 0C11.5086 0 9.36046 1.95703 9.36046 4.375C9.36046 6.79297 11.5086 8.75 14.1628 8.75ZM17.4558 10H17.0999C16.2081 10.3906 15.2176 10.625 14.1628 10.625C13.108 10.625 12.1218 10.3906 11.2257 10H10.8698C8.14273 10 5.93023 12.0156 5.93023 14.5V15.625C5.93023 16.6602 6.85211 17.5 7.98837 17.5H20.3372C21.4735 17.5 22.3953 16.6602 22.3953 15.625V14.5C22.3953 12.0156 20.1828 10 17.4558 10ZM7.86403 9.47656C7.36664 9.02734 6.68488 8.75 5.93023 8.75H3.18605C1.67246 8.75 0.44186 9.87109 0.44186 11.25V12.5C0.44186 13.1914 1.05501 13.75 1.81395 13.75H4.63961C4.90974 11.8984 6.13605 10.3398 7.86403 9.47656Z" fill="#A367B1"/>
</svg>
