<svg width="149" height="149" viewBox="0 0 149 149" fill="none" xmlns="http://www.w3.org/2000/svg">
<path id="Vector" d="M74.5 0C33.3448 0 0 33.3448 0 74.5C0 115.655 33.3448 149 74.5 149C115.655 149 149 115.655 149 74.5C149 33.3448 115.655 0 74.5 0ZM74.5 28.8387C89.0996 28.8387 100.935 40.6746 100.935 55.2742C100.935 69.8738 89.0996 81.7097 74.5 81.7097C59.9004 81.7097 48.0645 69.8738 48.0645 55.2742C48.0645 40.6746 59.9004 28.8387 74.5 28.8387ZM74.5 132.177C56.8663 132.177 41.0651 124.187 30.4909 111.69C36.1385 101.056 47.1933 93.7258 60.0806 93.7258C60.8016 93.7258 61.5226 93.846 62.2135 94.0563C66.1188 95.3179 70.2042 96.129 74.5 96.129C78.7958 96.129 82.9113 95.3179 86.7865 94.0563C87.4774 93.846 88.1984 93.7258 88.9194 93.7258C101.807 93.7258 112.861 101.056 118.509 111.69C107.935 124.187 92.1337 132.177 74.5 132.177Z" fill="white"/>
</svg>
