<svg width="51" height="50" viewBox="0 0 51 50" fill="none" xmlns="http://www.w3.org/2000/svg">
<path id="Vector" d="M25.3928 0C11.5823 0 0.392822 11.1895 0.392822 25C0.392822 38.8105 11.5823 50 25.3928 50C39.2033 50 50.3928 38.8105 50.3928 25C50.3928 11.1895 39.2033 0 25.3928 0ZM25.3928 9.67742C30.292 9.67742 34.2638 13.6492 34.2638 18.5484C34.2638 23.4476 30.292 27.4194 25.3928 27.4194C20.4936 27.4194 16.5219 23.4476 16.5219 18.5484C16.5219 13.6492 20.4936 9.67742 25.3928 9.67742ZM25.3928 44.3548C19.4755 44.3548 14.1731 41.6734 10.6247 37.4798C12.5198 33.9113 16.2295 31.4516 20.5541 31.4516C20.796 31.4516 21.038 31.4919 21.2698 31.5625C22.5803 31.9859 23.9513 32.2581 25.3928 32.2581C26.8344 32.2581 28.2154 31.9859 29.5158 31.5625C29.7477 31.4919 29.9896 31.4516 30.2315 31.4516C34.5561 31.4516 38.2658 33.9113 40.161 37.4798C36.6126 41.6734 31.3102 44.3548 25.3928 44.3548Z" fill="#6C6C6C"/>
</svg>
